<?xml version="1.0" standalone="no"?>
<!DOCTYPE svg PUBLIC "-//W3C//DTD SVG 20010904//EN" "http://www.w3.org/TR/2001/REC-SVG-20010904/DTD/svg10.dtd">
<svg version="1.0" xmlns="http://www.w3.org/2000/svg" width="300" height="300" viewBox="-3 0 297 300" preserveAspectRatio="xMidYMid meet">
    <g transform="translate(0,300) scale(0.085,-0.1)" fill="#000000" stroke="none">
        <path d="M178 2843 c-34 -39 -39 -139 -32 -605 6 -390 9 -452 23 -468 9 -11 23 -20 31 -21 44 -5 277 2 288 9 7 5 21 33 32 63 18 49 20 80 20 369 0 238 3 320 13 331 37 45 29 44 494 49 521 6 473 -8 473 136 0 75 -3 96 -19 115 l-19 24 -339 6 c-186 4 -476 7 -644 8 -280 1 -307 -1 -321 -16z"/>
        <path d="M1895 2846 c-19 -15 -24 -218 -7 -239 27 -32 98 -37 504 -37 237 0 409 -4 418 -10 13 -8 15 -49 16 -257 1 -136 -3 -309 -8 -385 -7 -98 -7 -142 1 -157 11 -20 19 -21 186 -21 l173 0 23 37 c21 33 23 50 23 133 -1 153 -3 309 -5 400 -4 168 -3 297 3 412 4 82 2 120 -6 126 -17 14 -1303 12 -1321 -2z"/>
        <path d="M618 1689 c-16 -9 -18 -29 -18 -179 l0 -168 38 -24 37 -23 380 3 c209 1 392 5 407 8 14 3 29 13 33 22 4 9 6 82 5 162 -1 207 21 193 -308 201 -376 11 -555 10 -574 -2z"/>
        <path d="M1945 1690 c-45 -18 -50 -35 -51 -195 -2 -169 5 -192 61 -196 17 -1 190 -1 386 -1 353 2 356 2 390 25 l34 23 7 129 c3 71 9 144 13 163 12 64 25 62 -419 61 -220 0 -410 -4 -421 -9z"/>
        <path d="M193 1245 c-13 -9 -28 -26 -35 -38 -16 -29 -23 -1019 -8 -1048 10 -19 27 -19 661 -19 642 0 651 0 680 21 l29 20 0 114 c0 62 -3 120 -6 129 -5 14 -55 16 -458 16 -248 0 -461 3 -473 6 -12 3 -24 13 -27 21 -3 8 -9 183 -13 389 -5 291 -9 377 -19 385 -8 7 -76 13 -161 15 -124 4 -152 2 -170 -11z"/>
        <path d="M2856 1241 c-16 -17 -26 -63 -43 -191 -3 -24 0 -149 7 -277 l13 -233 -27 -40 c-15 -23 -38 -45 -52 -50 -15 -6 -199 -10 -439 -10 -391 0 -415 -1 -424 -18 -12 -23 -16 -231 -5 -241 5 -5 41 -16 79 -25 61 -14 144 -16 622 -16 l552 0 26 22 c34 31 45 101 45 293 0 83 2 215 5 295 3 80 6 224 7 320 l3 174 -25 7 c-14 4 -93 7 -176 8 -136 1 -153 -1 -168 -18z"/>
    </g>
</svg>