<?xml version="1.0" encoding="utf-8"?>
<!-- Uploaded to: SVG Repo, www.svgrepo.com, Generator: SVG Repo Mixer Tools -->
<svg fill="#000000" width="800px" height="800px" viewBox="0 0 32 32" version="1.1" xmlns="http://www.w3.org/2000/svg">
<title>shopping-bag</title>
<path d="M28 8.75h-4.75v-0.621c0.003-0.079 0.005-0.173 0.005-0.267 0-3.93-3.186-7.117-7.116-7.117-0.076 0-0.151 0.001-0.226 0.003l0.011-0c-0.039-0.001-0.084-0.001-0.13-0.001-3.895 0-7.052 3.157-7.052 7.052 0 0.119 0.003 0.238 0.009 0.355l-0.001-0.017v0.611h-4.75c-1.794 0.002-3.248 1.456-3.25 3.25v14c0.004 2.898 2.352 5.246 5.25 5.25h20c2.898-0.004 5.246-2.352 5.25-5.25v-14c-0.002-1.794-1.456-3.248-3.25-3.25h-0zM11.25 8.13c-0.009-0.104-0.013-0.226-0.013-0.348 0-2.505 2.031-4.536 4.536-4.536 0.060 0 0.119 0.001 0.179 0.003l-0.009-0c0.068-0.004 0.148-0.006 0.228-0.006 2.535 0 4.59 2.055 4.59 4.59 0 0.107-0.004 0.214-0.011 0.32l0.001-0.014v0.611h-9.5zM28.75 26c-0.002 1.518-1.232 2.748-2.75 2.75h-20c-1.518-0.002-2.748-1.232-2.75-2.75v-14c0.001-0.414 0.336-0.749 0.75-0.75h4.75v5.75c0 0.69 0.56 1.25 1.25 1.25s1.25-0.56 1.25-1.25v0-5.75h9.5v5.75c0 0.69 0.56 1.25 1.25 1.25s1.25-0.56 1.25-1.25v0-5.75h4.75c0.414 0 0.75 0.336 0.75 0.75v0z"></path>
</svg>